<svg xmlns="http://www.w3.org/2000/svg" viewBox="0 0 32 32"><defs><linearGradient id="grad" x1="0%" x2="100%" y1="0%" y2="100%"><stop offset="0%" style="stop-color:#4285f4"/><stop offset="100%" style="stop-color:#34a853"/></linearGradient></defs><circle cx="16" cy="16" r="14" fill="url(#grad)"/><circle cx="10" cy="12" r="2.5" fill="#fff" opacity=".9"/><circle cx="22" cy="12" r="2.5" fill="#fff" opacity=".9"/><circle cx="16" cy="20" r="2.5" fill="#fff" opacity=".9"/><circle cx="16" cy="10" r="2" fill="#fff" opacity=".7"/><line x1="10" x2="16" y1="12" y2="10" stroke="#fff" stroke-width="1.2" opacity=".6"/><line x1="22" x2="16" y1="12" y2="10" stroke="#fff" stroke-width="1.2" opacity=".6"/><line x1="10" x2="16" y1="12" y2="20" stroke="#fff" stroke-width="1.2" opacity=".6"/><line x1="22" x2="16" y1="12" y2="20" stroke="#fff" stroke-width="1.2" opacity=".6"/><path fill="#FBBC04" d="M16 4 L17 7 L20 6 L18 9 L21 10 L17 11 L18 14 L16 11 L14 14 L15 11 L11 10 L14 9 L12 6 L15 7 Z" opacity=".9"/></svg>